<svg t="1589477716685" class="icon" viewBox="0 0 1097 1024" version="1.1" xmlns="http://www.w3.org/2000/svg" p-id="4607" width="48" height="48"><path d="M477.37 60.604c-231.226 0-417.699 186.472-417.699 417.698S246.144 896 477.37 896s417.699-186.472 417.699-417.698S708.595 60.604 477.369 60.604z m0 775.725c-196.915 0-358.028-161.112-358.028-358.027S280.455 120.275 477.37 120.275s358.027 161.112 358.027 358.027S674.284 836.329 477.37 836.329z" p-id="4608" fill="#00CED1"></path><path d="M617.597 274.487l-204.374 62.655c-11.934 4.475-20.885 14.918-20.885 28.344v196.915c-14.918-5.967-34.31-8.95-55.196-2.984-40.278 8.95-67.13 41.77-59.671 73.097 7.459 31.328 46.245 47.737 86.523 38.787 35.803-8.95 61.163-35.803 61.163-62.655V435.6l180.505-56.688v137.244c-14.917-5.967-34.31-8.951-55.195-2.984-40.278 8.95-67.13 41.77-59.672 73.097 7.46 31.328 46.246 47.737 86.524 38.787 35.802-8.951 61.163-34.311 61.163-61.163V292.389c1.491-11.934-10.443-20.885-20.885-17.902z" p-id="4609" fill="#00CED1"></path><path d="M226.466 178.791l540.625 540.625-40.216 40.216L186.25 219.007z" p-id="4610" fill="#00CED1"></path><path d="M226.466 178.791l540.625 540.625-40.216 40.216L186.25 219.007z" p-id="4611" fill="#00CED1"></path></svg>
